<svg id="Layer_1" height="512" viewBox="0 0 512 512" width="512" xmlns="http://www.w3.org/2000/svg" data-name="Layer 1"><path d="m166.94 374a55.246 55.246 0 0 0 55 55h179.96a55 55 0 0 0 55-55z" fill="#55d8d8"/><path d="m311.92 83.08a119.861 119.861 0 1 1 -119.85 119.85 119.852 119.852 0 0 1 119.85-119.85z" fill="#55d8d8"/><path d="m133.73 222.82-7.17 254.51a18.528 18.528 0 0 1 -37.04.04l-7.67-254.55z" fill="#6d7486"/><path d="m136.64 119.69a57.949 57.949 0 0 0 -57.9 0l.19 6.23-23.83-92.14 2.63-1.78a89.137 89.137 0 0 1 99.97-.01l2.64 1.79-23.5 91.54-.36-.01z" fill="#d4e1f4"/><circle cx="311.92" cy="202.93" fill="#d4e1f4" r="85.3"/><path d="m185 345h253v29h-253z" fill="#d8ff33"/><path d="m368.18 344.58v.34h-112.51v-35.96l.08-.14a119.966 119.966 0 0 0 112.35-.01l.08.15z" fill="#d4e1f4"/><path d="m124.73 114.5a57.732 57.732 0 0 1 11.91 5.19l-.16 5.62-2.75 97.51h-51.88l-2.92-96.9-.19-6.23a57.962 57.962 0 0 1 45.99-5.19z" fill="#fff27d"/><path d="m196.94 374h-30a55.246 55.246 0 0 0 55 55h30a55.246 55.246 0 0 1 -55-55z" fill="#49c4c1"/><path d="m110.52 477.37-7.67-254.55h-21l7.67 254.55a18.509 18.509 0 0 0 29.023 14.689 18.506 18.506 0 0 1 -8.023-14.689z" fill="#b0b5ca"/><path d="m256.62 202.93a85.306 85.306 0 0 1 70.3-83.958 85.3 85.3 0 1 0 0 167.916 85.306 85.306 0 0 1 -70.3-83.958z" fill="#c0cfe2"/><path d="m185 345h30v29h-30z" fill="#9be147"/><path d="m99.8 112.487a57.706 57.706 0 0 0 -21.063 7.2l3.11 103.13h21z" fill="#e8d758"/><g fill="#284268"><path d="m403.22 202.93a91.316 91.316 0 0 0 -140.347-77.02 6 6 0 1 0 6.455 10.116 79.373 79.373 0 1 1 -16.242 13.733 6 6 0 0 0 -8.9-8.049 91.3 91.3 0 1 0 159.034 61.22z"/><path d="m456.9 368h-12.9v-23.08a5.588 5.588 0 0 0 -5.58-5.92h-64.42v-26.7a126.358 126.358 0 0 0 63.68-109.37c0-69.394-56.411-125.85-125.8-125.85s-125.667 56.456-125.667 125.85c0 45.42 23.787 86.985 63.787 109.381v26.689h-64.58c-3.314 0-6.42 2.606-6.42 5.92v23.08h-12.06a6 6 0 0 0 -6 6 61.069 61.069 0 0 0 61 61h179.96a61.072 61.072 0 0 0 61-61.06 5.948 5.948 0 0 0 -6-5.94zm-258.83-164.831c0-62.777 51.073-113.969 113.85-113.969a113.918 113.918 0 0 1 0 227.834c-18.6 0-37.048-5.034-53.353-13.034a114.27 114.27 0 0 1 -60.497-100.831zm163.93 115.14v20.691h-100v-20.684c15 6.858 32.691 10.464 50 10.464a125.875 125.875 0 0 0 50-10.471zm74.548 90.338a48.68 48.68 0 0 1 -34.648 14.353h-179.96a49.241 49.241 0 0 1 -48.634-43h189.023a6 6 0 0 0 0-12h-171.329v-17h241v17h-40.334a6 6 0 1 0 0 12h58.873a48.117 48.117 0 0 1 -13.991 28.647z"/><path d="m163.7 28.815-2.639-1.788a94.651 94.651 0 0 0 -106.694.007l-2.633 1.782a6 6 0 0 0 -2.445 6.471l23.66 91.5 10.576 350.6a24.529 24.529 0 0 0 24.518 23.613h.159a24.233 24.233 0 0 0 24.357-23.667l9.887-350.657.2.094 23.5-91.495a6 6 0 0 0 -2.446-6.46zm-35.8 188.185h-16.182a6 6 0 0 0 0 12h15.841l-7 248a12.3 12.3 0 0 1 -12.438 12h-.082a12.458 12.458 0 0 1 -12.521-11.98l-7.481-248.02h4.463a6 6 0 1 0 0-12h-4.824l-2.827-93.768a52.164 52.164 0 0 1 45.691 0zm6.25-105.326c-.919-.416-1.848-.806-2.783-1.177l7.264-50.391a6 6 0 0 0 -11.877-1.712l-7.022 48.716q-3-.57-6.031-.856l.021-18.5a5.789 5.789 0 0 0 -5.997-5.754h-.007a5.9 5.9 0 0 0 -6 5.868l-.022 18.385q-2.895.271-5.764.807l-6.332-36.097a6 6 0 0 0 -11.821 2.074l6.551 37.338c-.978.383-1.951.782-2.913 1.215l-19.447-75.2a82.692 82.692 0 0 1 91.5 0z"/></g></svg>