<?xml version="1.0" encoding="iso-8859-1"?>
<!-- Generator: Adobe Illustrator 19.0.0, SVG Export Plug-In . SVG Version: 6.00 Build 0)  -->
<svg version="1.1" id="Capa_1" xmlns="http://www.w3.org/2000/svg" xmlns:xlink="http://www.w3.org/1999/xlink" x="0px" y="0px"
	 viewBox="0 0 503.672 503.672" style="enable-background:new 0 0 503.672 503.672;" xml:space="preserve">
<g>
	<g transform="translate(0 2)">
		<g>
			<path style="fill:#E3E7F2;" d="M285.376,48.358c0,0-25.18,20.144-25.18,40.289s8.393,26.859,8.393,26.859v67.132h33.574v-67.132
				c0,0,8.393-6.715,8.393-26.859S285.376,48.358,285.376,48.358z"/>
			<path style="fill:#E3E7F2;" d="M377.704,14.784c-32.449,0-58.754,7.516-58.754,16.787l33.574,58.754v92.313h50.361V90.325
				l33.574-58.754C436.458,22.3,410.153,14.784,377.704,14.784z"/>
			<path style="fill:#E3E7F2;" d="M201.692,54.715l-8.644,44.003v83.934h33.574V98.718l-8.644-44.003
				c-0.934-3.737-4.291-6.358-8.143-6.358S202.626,50.979,201.692,54.715z"/>
		</g>
		<path style="fill:#7FACFA;" d="M159.475,132.361v41.967H83.934v-41.967c0.014-4.63,3.764-8.38,8.393-8.393s8.38-3.764,8.393-8.393
			v-25.18c-4.63-0.014-8.38-3.764-8.393-8.393V14.852c0.014-4.63,3.764-8.38,8.393-8.393h41.967c4.63,0.014,8.38,3.764,8.393,8.393
			V82c-0.014,4.63-3.764,8.38-8.393,8.393v25.18c0.014,4.63,3.764,8.38,8.393,8.393
			C155.711,123.981,159.461,127.731,159.475,132.361z"/>
		<g>
			<path style="fill:#E3E7F2;" d="M134.294,132.361v41.967H83.934v-41.967c0.014-4.63,3.764-8.38,8.393-8.393
				s8.38-3.764,8.393-8.393v-25.18c-4.63-0.014-8.38-3.764-8.393-8.393V14.852c0.014-4.63,3.764-8.38,8.393-8.393h16.787
				c4.63,0.014,8.38,3.764,8.393,8.393V82c-0.014,4.63-3.764,8.38-8.393,8.393v25.18c0.014,4.63,3.764,8.38,8.393,8.393
				S134.28,127.731,134.294,132.361z"/>
			<rect x="352.524" y="123.883" style="fill:#E3E7F2;" width="50.361" height="58.754"/>
			<rect x="352.524" y="90.309" style="fill:#E3E7F2;" width="50.361" height="33.574"/>
			<rect x="193.048" y="98.72" style="fill:#E3E7F2;" width="33.574" height="83.934"/>
			<rect x="268.589" y="149.064" style="fill:#E3E7F2;" width="33.574" height="33.574"/>
			<rect x="268.589" y="115.49" style="fill:#E3E7F2;" width="33.574" height="33.574"/>
		</g>
		<path style="fill:#7FACFA;" d="M83.934,174.328v-41.967c0.014-4.63,3.763-8.38,8.393-8.393s8.38-3.763,8.393-8.393v-25.18h41.967
			v25.18c0.014,4.63,3.763,8.38,8.393,8.393c4.63,0.014,8.38,3.763,8.393,8.393v41.967"/>
		<path style="fill:#E3E7F2;" d="M134.294,132.361v41.967H83.934v-41.967c0.014-4.63,3.764-8.38,8.393-8.393s8.38-3.764,8.393-8.393
			v-25.18h16.787v25.18c0.014,4.63,3.764,8.38,8.393,8.393S134.28,127.731,134.294,132.361z"/>
		<path style="fill:#7FACFA;" d="M411.209,174.259H92.396c-22.273,0-43.632,8.852-59.375,24.608S8.443,235.99,8.461,258.262
			l0.171,226.39c-0.063,2.266,0.793,4.46,2.373,6.085c1.58,1.625,3.75,2.541,6.017,2.541h469.56c2.266,0,4.437-0.917,6.017-2.541
			c1.58-1.625,2.436-3.82,2.373-6.085l0.171-226.39c0.018-22.273-8.817-43.639-24.56-59.395
			C454.841,183.112,433.482,174.259,411.209,174.259z"/>
		<path style="fill:#E3E7F2;" d="M390.417,174.259H88.008c-45.176,1.226-80.812,38.827-79.615,84.003l0.162,226.39
			c-0.116,2.206,0.664,4.366,2.162,5.99c1.498,1.624,3.588,2.574,5.797,2.637h445.398c2.209-0.062,4.298-1.013,5.797-2.637
			c1.498-1.624,2.278-3.784,2.162-5.99l0.162-226.39C471.229,213.086,435.592,175.485,390.417,174.259z"/>
		<path style="fill:#7FACFA;" d="M347.656,323.815l-31.979,34.077l-63.874,68.239l-12.59-13.43l51.284-54.809l31.979-34.077
			c17.711-19.299,17.711-48.94,0-68.239c-5.256-5.68-11.914-9.877-19.305-12.17c15.935-4.864,33.246-0.128,44.485,12.17
			C365.366,274.875,365.366,304.516,347.656,323.815z"/>
		
			<linearGradient id="SVGID_1_" gradientUnits="userSpaceOnUse" x1="-52.755" y1="641.9135" x2="-52.1325" y2="641.2112" gradientTransform="matrix(193.0917 0 0 -171.1788 10365.666 110114.3906)">
			<stop  offset="0" style="stop-color:#D4E1F4"/>
			<stop  offset="0.1717" style="stop-color:#D4E1F4"/>
			<stop  offset="0.2" style="stop-color:#D4E1F4"/>
			<stop  offset="0.2001" style="stop-color:#DAE4F4"/>
			<stop  offset="0.2007" style="stop-color:#EBEBF4"/>
			<stop  offset="0.2014" style="stop-color:#F6F1F4"/>
			<stop  offset="0.2023" style="stop-color:#FDF4F4"/>
			<stop  offset="0.205" style="stop-color:#FFF5F4"/>
			<stop  offset="0.2522" style="stop-color:#FFF5F4"/>
			<stop  offset="0.26" style="stop-color:#FFF5F4"/>
			<stop  offset="0.26" style="stop-color:#D4E1F4"/>
			<stop  offset="0.3974" style="stop-color:#D4E1F4"/>
			<stop  offset="0.42" style="stop-color:#D4E1F4"/>
			<stop  offset="0.4201" style="stop-color:#DAE4F4"/>
			<stop  offset="0.4207" style="stop-color:#EBEBF4"/>
			<stop  offset="0.4214" style="stop-color:#F6F1F4"/>
			<stop  offset="0.4223" style="stop-color:#FDF4F4"/>
			<stop  offset="0.425" style="stop-color:#FFF5F4"/>
			<stop  offset="0.4894" style="stop-color:#FFF5F4"/>
			<stop  offset="0.5" style="stop-color:#FFF5F4"/>
			<stop  offset="0.5" style="stop-color:#F9F2F4"/>
			<stop  offset="0.5001" style="stop-color:#E8EBF4"/>
			<stop  offset="0.5003" style="stop-color:#DDE5F4"/>
			<stop  offset="0.5005" style="stop-color:#D6E2F4"/>
			<stop  offset="0.501" style="stop-color:#D4E1F4"/>
			<stop  offset="0.7062" style="stop-color:#D4E1F4"/>
			<stop  offset="0.74" style="stop-color:#D4E1F4"/>
			<stop  offset="0.741" style="stop-color:#FFF5F4"/>
			<stop  offset="0.8346" style="stop-color:#FFF5F4"/>
			<stop  offset="0.85" style="stop-color:#FFF5F4"/>
			<stop  offset="0.851" style="stop-color:#D4E1F4"/>
		</linearGradient>
		<path style="fill:url(#SVGID_1_);" d="M322.475,323.815l-31.979,34.077l-51.284,54.809l-51.284-54.809l-31.979-34.077
			c-17.711-19.299-17.711-48.94,0-68.239c5.278-5.694,11.967-9.892,19.389-12.17c15.935-4.864,33.246-0.128,44.485,12.17
			l19.389,20.732l12.59,13.43l31.979-34.161c5.278-5.693,11.967-9.892,19.389-12.17c7.391,2.293,14.049,6.491,19.305,12.17
			C340.186,274.875,340.186,304.516,322.475,323.815z"/>
	</g>
	<path style="fill:#FFFFFF;" d="M109.114,176.328h2.77c-44.614,1.965-79.44,39.291-78.311,83.934l0.168,226.371
		c-0.139,2.217,0.634,4.394,2.14,6.026c1.506,1.633,3.614,2.579,5.834,2.619h-25.18c-2.221-0.04-4.328-0.986-5.834-2.619
		c-1.506-1.633-2.279-3.81-2.14-6.026L8.393,260.262c-1.129-44.643,33.697-81.97,78.311-83.934H109.114z"/>
	<g>
		<polygon style="fill:#FFFFFF;" points="16.853,260.254 16.937,369.369 17.03,486.642 0.243,486.659 0.15,369.385 0.066,260.271 		
			"/>
		<g>
			<path style="fill:#428DFF;" d="M8.519,335.803c2.222-0.035,4.349-0.906,5.957-2.439c3.243-3.312,3.239-8.611-0.009-11.918
				l-1.259-1.007c-0.469-0.318-0.977-0.573-1.513-0.757c-0.477-0.241-0.986-0.409-1.513-0.499c-0.554-0.094-1.114-0.15-1.676-0.166
				c-2.222,0.033-4.35,0.904-5.957,2.439c-3.166,3.343-3.162,8.58,0.009,11.918c0.802,0.757,1.742,1.354,2.767,1.76
				C6.335,335.564,7.42,335.791,8.519,335.803z"/>
			<path style="fill:#428DFF;" d="M503.606,159.541c-0.075-13.907-11.343-25.155-25.25-25.205h-0.086
				c-6.656,0.009-13.031,2.687-17.697,7.434l-28.542,28.538c-6.804-1.59-13.766-2.407-20.753-2.437v-81.71l32.467-56.818
				c0.083-0.145,0.078-0.309,0.152-0.458c0.231-0.513,0.408-1.048,0.529-1.596c0.164-0.531,0.275-1.076,0.329-1.629
				c0.01-0.168,0.097-0.31,0.097-0.481c-0.051-0.538-0.135-1.072-0.252-1.599c-0.05-0.255-0.046-0.509-0.119-0.758
				C440.634,0.725,384.342,0,377.704,0c-6.638,0-62.93,0.725-66.777,22.823c-0.073,0.249-0.069,0.504-0.119,0.758
				c-0.117,0.527-0.201,1.061-0.252,1.599c0,0.171,0.087,0.312,0.097,0.481c0.054,0.553,0.164,1.099,0.329,1.629
				c0.121,0.549,0.298,1.084,0.529,1.596c0.074,0.149,0.069,0.312,0.152,0.458l32.468,56.818v81.707h-33.574v-55.64
				c6.056-8.779,9.009-19.327,8.393-29.975c0-23.5-25.43-44.525-28.332-46.844c-0.208-0.167-0.462-0.207-0.68-0.351
				c-0.916-0.581-1.925-0.998-2.984-1.233c-2.125-0.379-4.314,0.06-6.129,1.227c-0.222,0.145-0.48,0.187-0.692,0.356
				c-2.902,2.32-28.332,23.344-28.332,46.844c-0.616,10.647,2.338,21.195,8.393,29.974v55.641h-25.18V92.328
				c-0.039-0.267-0.093-0.532-0.159-0.793c0.016-0.274,0.017-0.548,0.004-0.822l-8.738-44.426
				c-1.884-7.553-8.715-12.82-16.499-12.72s-14.478,5.539-16.169,13.138l-8.644,44.008c-0.013,0.274-0.012,0.548,0.004,0.822
				c-0.067,0.261-0.12,0.526-0.159,0.793v75.541h-16.787v-33.574c-0.011-9.267-7.52-16.776-16.787-16.787V98.386
				c5.175-2.975,8.374-8.482,8.393-14.452V16.787C159.464,7.52,151.954,0.011,142.688,0h-41.967
				c-9.267,0.011-16.776,7.52-16.787,16.787v67.148c0.02,5.97,3.218,11.476,8.393,14.452v19.122
				c-9.267,0.011-16.776,7.52-16.787,16.787v35.156c-43.777,8.093-75.527,46.299-75.471,90.817H0.068l0.025,33.574
				c0.002,2.999,1.604,5.768,4.202,7.266s5.798,1.495,8.393-0.006c2.596-1.501,4.194-4.273,4.191-7.272l-0.025-33.571l0.001-0.003
				c-0.016-20.045,7.935-39.275,22.104-53.454s33.392-22.146,53.437-22.146h318.811c20.045,0,39.268,7.966,53.436,22.145
				c14.168,14.179,22.12,33.408,22.105,53.453l-0.168,226.631L17.02,486.902v-0.017c0.003-0.085-0.041-0.155-0.041-0.239h0.048
				l-0.095-125.669c-0.002-2.999-1.604-5.768-4.202-7.266s-5.798-1.495-8.393,0.006c-2.596,1.501-4.194,4.273-4.191,7.272
				l0.095,125.669h0.018c-0.071,4.491,1.665,8.822,4.817,12.021c3.153,3.199,7.458,4.998,11.949,4.992h469.557
				c4.491,0.001,8.795-1.797,11.95-4.994c3.155-3.196,4.897-7.524,4.837-12.015l0.168-226.393
				c0.068-24.003-9.281-47.076-26.038-64.261l18.706-18.706C500.941,172.606,503.606,166.212,503.606,159.541z M394.491,109.115
				h-33.574V92.328h33.574V109.115z M426.722,25.302l-28.707,50.239h-40.621l-28.707-50.239c5.418-3.498,22.329-8.515,49.018-8.515
				S421.305,21.804,426.722,25.302L426.722,25.302z M293.77,134.295h-16.787v-16.787h16.787V134.295z M285.376,53.275
				c7.165,7.031,16.787,18.74,16.787,28.98c0.35,6.406-1.042,12.788-4.026,18.467h-25.523c-2.983-5.68-4.374-12.061-4.025-18.467
				C268.589,72.015,278.211,60.306,285.376,53.275z M216.419,83.934h-13.21l6.532-34L216.419,83.934z M100.721,16.787h41.967
				l0.008,67.148h-41.976V16.787z M92.327,167.872v-33.577c9.267-0.011,16.776-7.52,16.787-16.787v-16.787h25.18v16.787
				c0.011,9.267,7.52,16.776,16.787,16.787v33.574H92.397L92.327,167.872z M201.442,167.869v-67.148h16.787v67.148H201.442z
				 M276.983,167.869v-16.787h16.787v16.787H276.983z M360.917,167.869v-41.967h33.574v41.967H360.917z M484.327,165.443
				l-19.604,19.604c-4.711-3.368-9.731-6.28-14.993-8.698l22.754-22.75c1.537-1.576,3.643-2.468,5.844-2.475h0.025
				c3.412-0.042,6.508,1.993,7.822,5.142C487.488,159.415,486.757,163.047,484.327,165.443L484.327,165.443z"/>
			<path style="fill:#428DFF;" d="M251.802,436.525c2.322,0.001,4.54-0.961,6.127-2.656l95.844-102.32
				c20.631-22.566,20.631-57.147,0-79.713c-9.77-10.641-23.542-16.715-37.988-16.754h-0.057
				c-14.483,0.031-28.296,6.107-38.106,16.762l-25.82,27.607l-25.84-27.631c-9.809-10.642-23.613-16.708-38.086-16.738h-0.057
				c-14.447,0.04-28.22,6.114-37.992,16.754c-20.63,22.567-20.628,57.148,0.004,79.713l95.844,102.32
				C247.262,435.564,249.481,436.526,251.802,436.525z M162.077,263.311c6.616-7.238,15.953-11.385,25.758-11.443h0.037
				c9.832,0.046,19.2,4.19,25.848,11.434l31.951,34.164c1.624,1.629,3.83,2.545,6.131,2.545s4.507-0.916,6.131-2.545l31.93-34.139
				c6.65-7.257,16.026-11.411,25.869-11.459h0.037c9.805,0.057,19.14,4.205,25.754,11.443c14.693,16.059,14.701,40.678,0.017,56.746
				l-0.012,0.017l-89.726,95.778l-89.738-95.795C147.382,303.989,147.387,279.373,162.077,263.311z"/>
			<path style="fill:#428DFF;" d="M41.966,386.164c2.226,0.001,4.361-0.884,5.936-2.458c1.574-1.574,2.458-3.709,2.458-5.936
				V268.656c0-4.636-3.758-8.393-8.393-8.393s-8.393,3.758-8.393,8.393V377.77c-0.001,2.226,0.884,4.361,2.458,5.936
				C37.605,385.28,39.74,386.164,41.966,386.164z"/>
			<path style="fill:#428DFF;" d="M33.573,444.918c0,4.636,3.758,8.393,8.393,8.393s8.393-3.758,8.393-8.393v-33.574
				c0-4.636-3.758-8.393-8.393-8.393s-8.393,3.758-8.393,8.393V444.918z"/>
		</g>
	</g>
</g>
<g>
</g>
<g>
</g>
<g>
</g>
<g>
</g>
<g>
</g>
<g>
</g>
<g>
</g>
<g>
</g>
<g>
</g>
<g>
</g>
<g>
</g>
<g>
</g>
<g>
</g>
<g>
</g>
<g>
</g>
</svg>
